Coordinates
version=1
nRows=8
nColumns=40
inDegrees=yes

Units are S.I. units (second, meters, Newtons, ...)
Angles are in degrees.

endheader
time	pelvis_tilt	pelvis_list	pelvis_rotation	pelvis_tx	pelvis_ty	pelvis_tz	hip_flexion_r	hip_adduction_r	hip_rotation_r	knee_angle_r	knee_angle_r_beta	ankle_angle_r	subtalar_angle_r	mtp_angle_r	hip_flexion_l	hip_adduction_l	hip_rotation_l	knee_angle_l	knee_angle_l_beta	ankle_angle_l	subtalar_angle_l	mtp_angle_l	lumbar_extension	lumbar_bending	lumbar_rotation	arm_flex_r	arm_add_r	arm_rot_r	elbow_flex_r	pro_sup_r	wrist_flex_r	wrist_dev_r	arm_flex_l	arm_add_l	arm_rot_l	elbow_flex_l	pro_sup_l	wrist_flex_l	wrist_dev_l
     20.52000000	     -3.68321222	     -4.14575843	      3.77112630	      0.82043740	      0.92044901	      0.45556595	      0.60964555	     -0.70247046	    -15.22170985	     24.04034841	     24.04034841	     18.87197963	      0.73119763	     -4.48029777	     26.29913943	     -4.05833183	     -0.14105780	     28.26186487	     28.26186487	      9.16197907	    -15.27247607	      5.56920559	     -8.18423630	      5.94368728	      4.46702552	     27.16441071	    -16.15814004	     -0.48166483	     84.46244533	     44.44252946	      0.00000000	      0.00000000	     -3.29109340	     -8.05720367	     -1.02846834	     32.89111961	     44.78633376	      0.00000000	      0.00000000
     20.53342857	     -3.72972572	     -4.04251014	      3.64326773	      0.82000302	      0.92111197	      0.45253261	      1.48510456	     -1.37396873	    -14.86605471	     26.23270441	     26.23270441	     17.30056122	     -0.51712173	     -8.01789231	     25.81146215	     -3.77758268	     -0.23161769	     28.22528854	     28.22528854	      9.88206158	    -15.31744219	      6.44640452	     -8.13578671	      5.84350702	      3.54123320	     27.27461011	    -15.07283243	      0.13757555	     80.16391792	     44.61616858	      0.00000000	      0.00000000	     -3.00452218	     -7.94373062	     -3.49688264	     34.37823968	     45.18767989	      0.00000000	      0.00000000
     20.54685714	     -3.75321777	     -3.92168676	      3.48644055	      0.81951091	      0.92167665	      0.44956842	      2.70613482	     -2.18596360	    -14.52618873	     29.20062542	     29.20062542	     16.53924507	     -1.31147759	     -8.92638568	     25.24028033	     -3.54299236	     -0.50673812	     28.06962250	     28.06962250	     10.28162164	    -15.17062398	      6.26424158	     -8.19991756	      5.72624495	      3.70020716	     25.86965562	    -15.18067116	      0.43919746	     78.94813019	     44.64756088	      0.00000000	      0.00000000	     -1.88657558	     -8.07339893	     -3.83595163	     35.13523877	     45.25613774	      0.00000000	      0.00000000
     20.56028571	     -3.88864929	     -3.87232906	      3.33390388	      0.81882261	      0.92204160	      0.44662657	      4.20358324	     -2.86083562	    -13.96495649	     32.26747471	     32.26747471	     14.95220030	     -2.97616672	    -11.15649870	     24.83009301	     -3.34352555	     -0.67227619	     27.93753607	     27.93753607	     10.57179047	    -15.20765527	      6.06269310	     -8.11994883	      5.71974946	      3.79151464	     24.64710256	    -15.08138228	      0.37372823	     76.32739863	     44.74868666	      0.00000000	      0.00000000	     -0.90305601	     -8.15449177	     -4.49685550	     36.47429546	     45.37393246	      0.00000000	      0.00000000
     20.57371429	     -3.94657049	     -3.75087904	      3.19814618	      0.81807088	      0.92243575	      0.44366868	      5.80597026	     -3.66339443	    -13.44683783	     35.64104565	     35.64104565	     13.22508539	     -4.54326562	    -13.03108863	     24.29594856	     -3.10321649	     -0.98117574	     27.72456217	     27.72456217	     10.86468132	    -15.04898546	      5.83549549	     -8.16917181	      5.64279419	      3.67567167	     23.44259588	    -14.83178083	      0.33076683	     74.09421249	     44.83085837	      0.00000000	      0.00000000	      0.06742482	     -8.33671022	     -4.89359318	     37.67769739	     45.45171698	      0.00000000	      0.00000000
     20.58714286	     -3.86401915	     -3.65443430	      3.05166177	      0.81730428	      0.92292358	      0.44090909	      7.31918616	     -4.30769141	    -12.68920100	     38.89555697	     38.89555697	     10.35055419	     -7.17301631	    -16.95806422	     23.62852887	     -2.91746225	     -1.28641377	     27.54120697	     27.54120697	     11.13982663	    -14.88581845	      5.39777999	     -8.33771361	      5.57487120	      3.06808479	     23.02086833	    -13.85716705	     -0.14742350	     70.20150178	     45.00114919	      0.00000000	      0.00000000	      0.48136171	     -8.71299320	     -5.50576415	     39.80925062	     45.57215465	      0.00000000	      0.00000000
     20.60057143	     -3.82104598	     -3.46761415	      2.92875932	      0.81638894	      0.92318612	      0.43806156	      9.12813000	     -5.22093483	    -12.23202998	     42.70343939	     42.70343939	      8.63346142	     -8.33632319	    -17.24646465	     23.06056967	     -2.62032366	     -1.60468072	     27.45070899	     27.45070899	     11.48604359	    -14.70423694	      5.18511683	     -8.54551036	      5.45503596	      2.99317044	     21.40558961	    -13.88918713	      0.04317050	     68.88055104	     45.03457179	      0.00000000	      0.00000000	      1.76661155	     -9.02800673	     -5.65626683	     40.66087727	     45.61388758	      0.00000000	      0.00000000
     20.61400000	     -3.83258566	     -3.41142502	      2.78692318	      0.81539928	      0.92335256	      0.43550520	     11.07803460	     -5.84086499	    -11.55282033	     46.42833737	     46.42833737	      6.63448660	     -9.89315127	    -17.20347748	     22.54147349	     -2.47311618	     -1.88243105	     27.30626586	     27.30626586	     11.89621336	    -14.53764834	      4.93668811	     -8.63728247	      5.40266933	      3.07212097	     19.76766985	    -14.00036634	      0.02300759	     67.01591614	     45.09400578	      0.00000000	      0.00000000	      3.01314981	     -9.28807029	     -5.76676990	     41.74966931	     45.65234214	      0.00000000	      0.00000000
